<svg height="512pt" viewBox="-13 0 512 512.00088" width="512pt" xmlns="http://www.w3.org/2000/svg"><path d="m85.839844 190.542969-74.511719-44.734375c-2.558594 4.5625-3.972656 9.777344-3.972656 15.1875v189.441406c0 10.902344 5.71875 21.007812 15.070312 26.621094 2.867188 1.722656 29.886719 17.945312 63.414063 38.074218l78.488281 47.125c32.550781 19.542969 58.8125 35.308594 62.5 37.523438 4.917969 2.953125 10.453125 4.429688 15.984375 4.429688v-69.695313c0-6.582031 0-143.164063 0-149.726563-6.898438-4.144531-150.089844-90.113281-156.972656-94.246093zm0 0" fill="#60b8ff"/><path d="m44.972656 373.371094v-63.707032h.003906v-143.65625l-33.648437-20.199218c-2.558594 4.5625-3.972656 9.777344-3.972656 15.1875v189.441406c0 10.902344 5.722656 21.007812 15.070312 26.621094 1.832031 1.101562 13.523438 8.121094 30.457031 18.285156-5.03125-6.097656-7.910156-13.828125-7.910156-21.972656zm0 0" fill="#22a7ff"/><path d="m463.203125 134.375-63.417969-38.074219-78.484375-47.125-62.5-37.523437c-9.839843-5.90625-22.132812-5.90625-31.972656 0l-62.5 37.523437c-.261719.160157-141.640625 85.039063-141.902344 85.199219-4.707031 2.828125-8.496093 6.796875-11.097656 11.433594l74.511719 44.734375c6.882812 4.132812 150.078125 90.105469 156.972656 94.246093 6.902344-4.144531 150.09375-90.113281 156.972656-94.246093l74.515625-44.734375c-2.601562-4.636719-6.386719-8.605469-11.097656-11.433594zm0 0" fill="#ffd500"/><path d="m154.367188 188.210938-63.355469-38.039063c-6.769531-4.0625-6.945313-13.949219-.203125-18.046875.046875-.027344.09375-.058594.140625-.085938.265625-.15625 141.640625-85.035156 141.902343-85.195312l42.28125-25.386719-16.335937-9.804687c-9.835937-5.90625-22.132813-5.90625-31.96875 0l-62.5 37.523437c-.265625.160157-141.640625 85.039063-141.902344 85.199219-4.710937 2.828125-8.496093 6.796875-11.097656 11.433594l74.511719 44.734375c6.882812 4.132812 150.078125 90.105469 156.972656 94.246093 2.089844-1.257812 16.6875-10.019531 36.207031-21.738281-44.589843-26.769531-119.714843-71.875-124.652343-74.839843zm0 0" fill="#fbc700"/><path d="m478.273438 218.285156v-57.292968c-.003907-5.410157-1.414063-10.621094-3.976563-15.183594l-74.511719 44.734375c-6.886718 4.132812-150.074218 90.105469-156.972656 94.246093v149.726563 69.695313c5.535156 0 11.066406-1.476563 15.984375-4.429688 2.664063-1.601562 29.28125-17.582031 62.5-37.527344l78.488281-47.121094 63.421875-38.078124c9.34375-5.613282 15.0625-15.714844 15.0625-26.617188v-132.152344zm0 0" fill="#ff4755"/><path d="m242.8125 434.515625v69.695313c5.535156 0 11.066406-1.476563 15.988281-4.429688 1.398438-.839844 9.414063-5.652344 21.515625-12.917969v-224.589843c-20.167968 12.105468-35.367187 21.234374-37.503906 22.515624zm0 0" fill="#fc2b3a"/><path d="m18.710938 383.78125c8.351562 5.011719 195.03125 117.09375 204.402343 122.71875 12.203125 7.328125 27.472657 7.339844 39.695313 0 5.378906-3.230469 198.539062-119.203125 204.40625-122.726562 11.535156-6.925782 18.699218-19.589844 18.703125-33.042969 0-12.546875 0-61.734375 0-69.59375 0-4.140625-3.359375-7.5-7.5-7.5-4.144531 0-7.503907 3.359375-7.503907 7.5v8.058593l-63.484374 38.117188v-57.367188l63.484374-38.117187v14.308594c0 4.140625 3.359376 7.5 7.503907 7.5 4.140625 0 7.5-3.359375 7.5-7.5 0-10.011719 0-76.953125 0-84.851563-.003907-13.511718-7.109375-26.082031-18.707031-33.046875-14.625-8.78125-78.640626-47.214843-88.839844-53.339843-3.550782-2.132813-8.160156-.980469-10.292969 2.570312s-.980469 8.160156 2.570313 10.292969l14.710937 8.832031-63.914063 38.375c-39.34375-23.621094-23.839843-14.3125-63.917968-38.375 43.859375-26.332031 30.214844-18.140625 63.914062-38.375l16.269532 9.769531c3.550781 2.128907 8.15625.980469 10.292968-2.570312 2.132813-3.550781.980469-8.160157-2.570312-10.292969-43.621094-26.195312 17.140625 10.289062-82.628906-49.613281-12.242188-7.351563-27.453126-7.347657-39.691407 0-6.199219 3.722656-204.402343 122.722656-204.402343 122.722656-11.621094 6.976563-18.710938 19.558594-18.710938 33.054687v189.4375c0 13.460938 7.167969 26.125 18.710938 33.054688zm74.777343-179.695312c49.074219 29.464843 42.332031 25.414062 63.484375 38.117187v57.363281l-63.484375-38.113281zm298.941407 57.367187-63.484376 38.117187v-57.367187l63.484376-38.117187zm-78.484376-10.246094v57.367188l-63.484374 38.117187v-57.367187c6.570312-3.945313 53.386718-32.054688 63.484374-38.117188zm-78.488281 38.117188v57.367187l-63.484375-38.117187v-57.367188c6.5 3.902344 57.363282 34.441407 63.484375 38.117188zm-63.484375 36.746093 63.484375 38.117188v57.367188l-63.484375-38.117188zm78.488282 38.117188 63.484374-38.117188v57.367188l-63.484374 38.113281zm-156.972657-85.238281 63.484375 38.117187v57.367188l-63.484375-38.117188zm298.941407 57.367187-63.484376 38.117188v-57.367188l63.484376-38.117187zm-85.554688-98.359375-63.917969 38.371094-63.914062-38.371094 63.914062-38.375c8.222657 4.9375 55.042969 33.046875 63.917969 38.375zm-78.488281-47.121093-63.914063 38.375c-6.175781-3.710938-57.429687-34.480469-63.914062-38.375l63.914062-38.375zm-149.898438 61.609374-63.484375-38.117187v-53.039063c0-1.378906.121094-2.753906.359375-4.109374l63.125 37.898437zm328.941407 0v-57.367187l63.125-37.898437c.238281 1.355468.359374 2.726562.359374 4.105468v53.042969zm-85.984376-23.238281c-8.222656-4.933593-55.042968-33.046875-63.914062-38.375 8.976562-5.390625 55.640625-33.40625 63.914062-38.371093l63.914063 38.371093zm-14.570312-85.496093c-8.816406 5.292968-55.117188 33.09375-63.917969 38.375l-63.914062-38.375c8.746093-5.25 55.210937-33.148438 63.914062-38.375 27.265625 16.371093 31.371094 18.835937 63.917969 38.375zm-142.402344-85.496094 63.914063 38.375c-8.746094 5.25-55.210938 33.148437-63.914063 38.375-9.179687-5.511719-58.378906-35.050782-63.914062-38.375zm-85.984375 211.730468v57.363282l-63.484375-38.113282v-57.367187zm-63.488281 80.78125v-44.035156l63.488281 38.113282v57.367187l-52.058593-31.25c-7.046876-4.234375-11.429688-11.972656-11.429688-20.195313zm78.488281 3.085938 63.484375 38.117188v57.363281l-63.484375-38.113281zm78.484375 104.488281v-57.367187l63.484375 38.117187v56.722657c-1.605469-.539063-3.15625-1.253907-4.625-2.132813zm83.113282 35.339844c-1.464844.878906-3.019532 1.59375-4.625 2.132813v-56.722657l63.484374-38.117187v57.367187zm73.859374-101.710937 63.484376-38.117188v57.367188l-63.484376 38.113281zm141.972657-41.203126c-.003907 8.21875-4.378907 15.957032-11.421875 20.1875l-52.066406 31.257813v-57.367187l63.484374-38.113282v44.035156zm-7.558594-206.722656-63.429687 38.082032c-19.574219-11.753907-10.097657-6.0625-63.914063-38.375l63.914063-38.371094 59.558593 35.757812c1.390625.832032 2.6875 1.808594 3.871094 2.90625zm-232.523437-125.628906c7.476562-4.492188 16.769531-4.492188 24.25 0l51.789062 31.09375c-29.9375 17.972656-6.050781 3.628906-63.917969 38.371094l-63.914062-38.371094zm-204.410157 122.722656c.296875-.179687 45.84375-27.523437 59.5625-35.757812l63.914063 38.371094c-53.300782 32.003906-44.136719 26.5-63.914063 38.375l-63.429687-38.082032c1.183594-1.097656 2.480468-2.074218 3.867187-2.90625zm0 0"/></svg>