<svg height="512" viewBox="0 0 256 256" width="512" xmlns="http://www.w3.org/2000/svg"><rect fill="#cecece" height="151.106" rx="13.665" width="219.26" x="18.37" y="49.464"/><path d="m28.37 186.9v-123.772a13.681 13.681 0 0 1 13.665-13.664h-10a13.681 13.681 0 0 0 -13.665 13.664v123.772a13.681 13.681 0 0 0 13.665 13.665h10a13.681 13.681 0 0 1 -13.665-13.665z" fill="#afafaf"/><path d="m227.63 186.9v-123.772a13.681 13.681 0 0 0 -13.665-13.665h10a13.681 13.681 0 0 1 13.665 13.665v123.772a13.681 13.681 0 0 1 -13.665 13.665h-10a13.681 13.681 0 0 0 13.665-13.665z" fill="#e2e2e2"/><rect fill="#63bce7" height="122.288" rx="5.256" width="202.442" x="26.779" y="57.872"/><path d="m36.779 174.9v-111.772a5.271 5.271 0 0 1 5.256-5.256h-10a5.271 5.271 0 0 0 -5.256 5.256v111.772a5.271 5.271 0 0 0 5.256 5.256h10a5.271 5.271 0 0 1 -5.256-5.256z" fill="#6377e7"/><path d="m219.221 174.9v-111.772a5.271 5.271 0 0 0 -5.256-5.256h10a5.271 5.271 0 0 1 5.256 5.256v111.772a5.271 5.271 0 0 1 -5.256 5.256h-10a5.271 5.271 0 0 0 5.256-5.256z" fill="#63e2e7"/><path d="m89.809 222.728h76.383v9.197h-76.383z" fill="#9e9e9e"/><path d="m89.809 222.728h10v9.197h-10z" fill="#707070"/><path d="m100.67 200.569h54.659v22.158h-54.659z" fill="#cecece"/><path d="m100.67 200.569h10v22.158h-10z" fill="#afafaf"/><circle cx="128" cy="190.365" fill="#9e9e9e" r="4.5"/><path d="m188.979 40.496-27.393-27.394h-94.565v167.058h121.958z" fill="#f8af23"/><path d="m161.586 13.102h-10l27.393 27.394v139.664h10v-139.664z" fill="#f8d323"/><path d="m67.021 13.102h10v167.058h-10z" fill="#f87023"/><rect fill="#cecece" height="51.305" rx="25.652" width="158.667" x="48.667" y="70.979"/><g fill="#3f3679"><path d="m128 196.365a6 6 0 1 0 -6-6 6.007 6.007 0 0 0 6 6zm0-9a3 3 0 1 1 -3 3 3 3 0 0 1 3-3z"/><path d="m27.323 241.4h-18a1.5 1.5 0 0 0 0 3h18a1.5 1.5 0 1 0 0-3z"/><path d="m246.68 241.4h-18a1.5 1.5 0 0 0 0 3h18a1.5 1.5 0 0 0 0-3z"/><path d="m218.479 241.4h-180.958a1.5 1.5 0 0 0 0 3h180.958a1.5 1.5 0 0 0 0-3z"/><path d="m9.32 233.425h237.36a1.5 1.5 0 0 0 0-3h-78.989v-7.7a1.5 1.5 0 0 0 -1.5-1.5h-9.362v-19.156h67.137a15.182 15.182 0 0 0 15.164-15.169v-123.772a15.182 15.182 0 0 0 -15.164-15.165h-33.487v-7.463a1.5 1.5 0 0 0 -.439-1.061l-27.394-27.397a1.5 1.5 0 0 0 -1.061-.439h-94.564a1.5 1.5 0 0 0 -1.5 1.5v34.86h-33.487a15.182 15.182 0 0 0 -15.164 15.165v123.772a15.182 15.182 0 0 0 15.164 15.165h67.137v19.158h-9.362a1.5 1.5 0 0 0 -1.5 1.5v7.7h-78.989a1.5 1.5 0 0 0 0 3zm22.714-54.764a3.76 3.76 0 0 1 -3.755-3.756v-111.777a3.759 3.759 0 0 1 3.755-3.755h33.487v11.578a27.144 27.144 0 0 0 0 51.362v56.348zm131.052-161.938 22.272 22.277h-22.272zm42.747 79.908a24.18 24.18 0 0 1 -24.152 24.152h-107.362a24.152 24.152 0 1 1 0-48.3h107.362a24.18 24.18 0 0 1 24.152 24.148zm-137.312 26.523a27.133 27.133 0 0 0 5.8.63h107.36a27.133 27.133 0 0 0 5.8-.63v55.507h-118.96zm121.959-.842a27.144 27.144 0 0 0 0-51.362v-11.577h33.486a3.759 3.759 0 0 1 3.755 3.755v111.772a3.76 3.76 0 0 1 -3.755 3.756h-33.487zm-30.394-107.712v25.9a1.5 1.5 0 0 0 1.5 1.5h25.894v28.109a27.133 27.133 0 0 0 -5.8-.63h-107.361a27.133 27.133 0 0 0 -5.8.63v-55.509zm-140.216 172.3v-123.772a12.178 12.178 0 0 1 12.164-12.165h33.487v5.409h-33.487a6.763 6.763 0 0 0 -6.755 6.755v111.773a6.763 6.763 0 0 0 6.755 6.756h191.932a6.763 6.763 0 0 0 6.755-6.756v-111.772a6.763 6.763 0 0 0 -6.755-6.755h-33.487v-5.41h33.486a12.178 12.178 0 0 1 12.165 12.165v123.772a12.178 12.178 0 0 1 -12.164 12.165h-191.932a12.178 12.178 0 0 1 -12.164-12.165zm82.3 15.165h51.658v19.158h-51.657zm-10.861 22.163h73.383v6.2h-73.383z"/><path d="m177.239 87.848a3.251 3.251 0 0 1 4.6 0l6.484 6.484a3.251 3.251 0 0 1 0 4.6l-6.484 6.484a3.251 3.251 0 0 1 -4.6-4.6l4.185-4.185-4.185-4.185a3.251 3.251 0 0 1 0-4.598z"/><path d="m78.761 87.848a3.251 3.251 0 0 0 -4.6 0l-6.484 6.484a3.251 3.251 0 0 0 0 4.6l6.484 6.484a3.251 3.251 0 0 0 4.6-4.6l-4.185-4.185 4.185-4.185a3.251 3.251 0 0 0 0-4.598z"/><path d="m107.083 92.461a8.244 8.244 0 0 1 1.813 5.647v9.757a.637.637 0 0 1 -.637.637h-4.212a.637.637 0 0 1 -.637-.637v-9.116a3.949 3.949 0 0 0 -.947-2.808 3.289 3.289 0 0 0 -2.518-1.011 3.425 3.425 0 0 0 -2.645 1.06 4.277 4.277 0 0 0 -.979 3.015v8.859a.637.637 0 0 1 -.637.637h-4.214a.637.637 0 0 1 -.637-.637v-22.464a.637.637 0 0 1 .637-.637h4.212a.637.637 0 0 1 .637.637v6.459a.632.632 0 0 0 1.081.441 6.068 6.068 0 0 1 1.211-.966 6.735 6.735 0 0 1 3.578-.93 6.2 6.2 0 0 1 4.894 2.057z"/><path d="m122.659 104.422v3.442a.637.637 0 0 1 -.637.637h-1.834a7.106 7.106 0 0 1 -4.892-1.556q-1.748-1.556-1.748-5.149v-5.94a.637.637 0 0 0 -.637-.637h-1.132a.637.637 0 0 1 -.637-.637v-3.345a.637.637 0 0 1 .637-.637h1.132a.637.637 0 0 0 .637-.637v-3.121a.637.637 0 0 1 .637-.637h4.215a.637.637 0 0 1 .637.637v3.122a.637.637 0 0 0 .637.637h2.319a.637.637 0 0 1 .637.637v3.345a.637.637 0 0 1 -.637.637h-2.323a.637.637 0 0 0 -.637.637v6.036a2.009 2.009 0 0 0 .434 1.476 2.066 2.066 0 0 0 1.459.417h1.1a.637.637 0 0 1 .633.636z"/><path d="m154.13 92.445a8 8 0 0 1 1.894 5.663v9.757a.637.637 0 0 1 -.637.637h-4.181a.637.637 0 0 1 -.637-.637v-9.116a3.654 3.654 0 0 0 -.913-2.647 3.3 3.3 0 0 0 -2.486-.946 3.366 3.366 0 0 0 -2.583 1.01 3.99 3.99 0 0 0 -.947 2.839v8.859a.637.637 0 0 1 -.637.637h-4.212a.637.637 0 0 1 -.637-.637v-9.115a3.7 3.7 0 0 0 -.9-2.647 3.243 3.243 0 0 0 -2.471-.946 3.449 3.449 0 0 0 -2.6.994 3.945 3.945 0 0 0 -.962 2.855v8.859a.637.637 0 0 1 -.637.637h-4.212a.637.637 0 0 1 -.637-.637v-16.627a.637.637 0 0 1 .637-.637h4.212a.637.637 0 0 1 .637.637v.414a.639.639 0 0 0 1.107.429 5.588 5.588 0 0 1 1.059-.806 6.564 6.564 0 0 1 3.416-.866 6.9 6.9 0 0 1 3.625.946 5.812 5.812 0 0 1 1.888 1.824.626.626 0 0 0 1.029.047 7.149 7.149 0 0 1 2.007-1.823 7.349 7.349 0 0 1 8.773 1.042z"/><path d="m165.167 85.4v22.467a.637.637 0 0 1 -.637.637h-4.212a.637.637 0 0 1 -.637-.637v-22.467a.637.637 0 0 1 .637-.637h4.212a.637.637 0 0 1 .637.637z"/></g></svg>